<svg width="199" height="173" viewBox="0 0 199 173" fill="none" xmlns="http://www.w3.org/2000/svg">
<path d="M53.156 60.9668C48.013 72.9243 33.6383 99.0765 1.85449 106.482" stroke="#267987" stroke-width="2.86894" stroke-linecap="round"/>
<path d="M66.6562 31.3551C70.7707 26.3406 90.9709 10.4942 111.015 23.5529C136.473 40.1391 151.13 40.1391 157.687 40.1391" stroke="#267987" stroke-width="2.86894" stroke-linecap="round"/>
<path d="M157.686 36.8732C158.785 35.048 161.155 34.4589 162.98 35.5574L166.928 37.9334L159.541 50.207L155.593 47.8311C153.768 46.7325 153.179 44.3624 154.277 42.5371L157.686 36.8732Z" fill="#D4E4E7"/>
<path d="M155.342 40.0918L154.002 42.617C153.04 44.4272 153.663 46.673 155.419 47.7303L160.004 50.4917" stroke="#267987" stroke-width="0.717234" stroke-linecap="round"/>
<path d="M161.674 41.6115C165.754 34.833 174.556 32.6451 181.335 36.7248L184.682 38.7394L169.908 63.2867L166.561 61.2721C159.782 57.1924 157.594 48.3901 161.674 41.6115Z" fill="#D4E4E7"/>
<path d="M26.8206 40.0511C26.4135 39.8417 26.2533 39.3419 26.4627 38.9348C29.9535 32.1499 38.2834 29.4795 45.0683 32.9702L108.691 65.7036L101.992 78.7257L26.8206 40.0511Z" fill="#D4E4E7"/>
<path d="M99.3984 77.3844L27.3746 40.1307C26.8982 39.8843 26.5886 39.3901 26.6861 38.8628C26.9331 37.5283 27.7589 35.628 29.8267 34.709" stroke="#267987" stroke-width="0.713472" stroke-linecap="round"/>
<path d="M71.22 10.0235C71.2093 9.5866 71.5549 9.22376 71.9918 9.21308C79.2734 9.03508 85.3206 14.7937 85.4986 22.0753L87.1678 90.3569L73.1921 90.6986L71.22 10.0235Z" fill="#D4E4E7"/>
<path d="M85.771 31.4824L86.9831 87.9091" stroke="#267987" stroke-width="0.717234" stroke-linecap="round"/>
<circle cx="79.1423" cy="59.6382" r="2.86894" transform="rotate(-12.2503 79.1423 59.6382)" fill="#267987"/>
<rect x="187.481" y="46.9023" width="13.0228" height="3.90685" rx="1.95343" transform="rotate(31.0417 187.481 46.9023)" fill="#FDB952"/>
<rect x="181.195" y="57.1602" width="13.0228" height="3.90685" rx="1.95343" transform="rotate(31.0417 181.195 57.1602)" fill="#FDB952"/>
<rect x="186.363" y="35.9492" width="8.46485" height="35.1617" rx="3.25571" transform="rotate(31.0417 186.363 35.9492)" fill="#C4413C"/>
<path d="M71.8718 89.8298C72.2588 88.17 73.7177 86.9807 75.4214 86.936L84.9823 86.6853C86.717 86.6398 88.2558 87.7918 88.7009 89.4691L93.4891 107.516C94.1091 109.853 92.3859 112.156 89.9691 112.221L71.3541 112.721C68.9012 112.787 67.0486 110.515 67.6058 108.126L71.8718 89.8298Z" fill="#F3D9D8"/>
<ellipse cx="78.5824" cy="131.837" rx="25.8451" ry="32.9939" transform="rotate(-2.62394 78.5824 131.837)" fill="#F3D9D8"/>
<ellipse cx="78.2461" cy="131.936" rx="16.4042" ry="20.9416" transform="rotate(-2.62394 78.2461 131.936)" fill="#F19895"/>
<path d="M79.2048 152.856C70.1545 153.271 62.3886 144.241 61.8591 132.687C61.3296 121.134 68.2371 111.431 77.2874 111.017" stroke="#CD4B46" stroke-width="0.717234" stroke-linecap="round"/>
<ellipse cx="82.4473" cy="131.526" rx="12.1708" ry="15.9263" transform="rotate(-2.62394 82.4473 131.526)" fill="white"/>
<path d="M75.8014 164.495C71.1546 164.277 66.4608 160.901 64.6948 159.24C75.851 157.073 98.0804 153.065 97.7491 154.363C97.3349 155.986 88.8657 168.174 84.8393 169.048C80.8129 169.922 81.6098 164.767 75.8014 164.495Z" fill="#F3D9D8"/>
<path d="M100.528 79.504C99.1962 78.3151 98.8347 76.3768 99.6487 74.7878L104.216 65.8707C105.045 64.2528 106.877 63.4159 108.642 63.8485L127.64 68.503C130.1 69.1056 131.353 71.8461 130.2 74.1008L121.317 91.4682C120.146 93.7566 117.128 94.3204 115.211 92.6088L100.528 79.504Z" fill="#F3D9D8"/>
<ellipse cx="142.526" cy="94.4142" rx="27.0741" ry="34.5628" transform="rotate(-63.9983 142.526 94.4142)" fill="#F3D9D8"/>
<ellipse rx="17.1842" ry="21.9374" transform="matrix(-0.624749 0.780825 0.780825 0.624749 142.449 94.7717)" fill="#F19895"/>
<ellipse rx="12.9128" ry="16.6837" transform="matrix(-0.624749 0.780825 0.780825 0.624749 139.584 97.9354)" fill="white"/>
<path d="M171.155 113.362C168.623 117.525 163.163 120.147 160.75 120.938C164.356 109.592 171.826 87.1398 172.854 88.0961C174.138 89.2915 181.095 103.196 179.878 107.337C178.661 111.478 174.32 108.157 171.155 113.362Z" fill="#F3D9D8"/>
<path d="M71.2847 9.66602L73.2133 87.9683" stroke="#267987" stroke-width="0.717234" stroke-linecap="round"/>
<path d="M61.2148 14.2804L58.7666 1" stroke="#FDB952" stroke-width="1.07585" stroke-linecap="round" stroke-linejoin="round"/>
<path d="M54.5045 18.7997L47.1692 7.79528" stroke="#FDB952" stroke-width="1.07585" stroke-linecap="round" stroke-linejoin="round"/>
<path d="M49.4431 24.6037L37.7166 19.1442" stroke="#FDB952" stroke-width="1.07585" stroke-linecap="round" stroke-linejoin="round"/>
<path d="M88.6403 89.9379C87.9229 88.5035 87.2774 86.4235 81.8264 86.7104C74.9077 87.0745 72.8612 85.2759 71.0681 93.1655C69.6336 99.4771 69.5141 100.816 69.6336 100.696C63.059 103.685 50.4834 115.113 52.7786 136.917" stroke="#C3413C" stroke-width="0.717234" stroke-linecap="round"/>
<path d="M54.2124 142.652C55.7664 149.347 62.7475 163.165 78.2397 164.887C79.2961 165.52 81.3982 166.995 82.2687 168.319C82.474 168.631 82.7327 168.931 83.1022 168.987C84.4676 169.195 87.1115 168.59 90.0741 164.887" stroke="#C3413C" stroke-width="0.717234" stroke-linecap="round"/>
<path d="M102.626 69.1391C104.06 66.9874 104.563 62.8992 108.005 63.7598C111.448 64.6205 120.437 66.7483 124.502 67.7046C136.097 64.1184 162.658 64.3336 176.142 93.8836C177.696 97.2307 180.589 104.714 179.729 107.87" stroke="#C3413C" stroke-width="0.717234" stroke-linecap="round"/>
<path d="M110.875 97.4688C112.189 102.728 118.405 114.539 132.75 119.703C150.681 126.158 165.743 121.137 170.764 113.965" stroke="#C3413C" stroke-width="0.717234" stroke-linecap="round"/>
<path d="M100.474 73.082C99.3982 74.2774 97.892 77.242 100.474 79.5371C103.056 81.8323 107.527 85.5141 109.44 87.0681C109.201 89.3393 109.081 94.3839 110.516 96.3921" stroke="#C3413C" stroke-width="0.717234" stroke-linecap="round"/>
<path d="M57.7988 63.4004C56.0057 68.6601 49.3355 81.9768 36.999 93.1656" stroke="#C4413C" stroke-width="0.717234" stroke-linecap="round"/>
<path d="M90.7915 26.103C93.4214 23.7122 101.98 21.2258 122.35 37.5788" stroke="#C4413C" stroke-width="0.717234" stroke-linecap="round"/>
<path d="M165.743 37.5801C162.874 40.0904 156.992 48.8407 162.156 56.5868" stroke="#267987" stroke-width="0.717234" stroke-linecap="round"/>
</svg>
