<svg width="289" height="258" viewBox="0 0 289 258" fill="none" xmlns="http://www.w3.org/2000/svg">
<path d="M144.931 230.475C90.6174 230.475 45.1181 192.736 33.2251 142.049M144.931 1C117.635 1 92.5643 10.5321 72.8675 26.4493" stroke="#C4413C" stroke-width="2"/>
<path d="M144.931 230.475C177.258 230.475 206.463 217.105 227.318 195.594M144.931 1C198.026 1 242.698 37.0648 255.786 86.0338" stroke="#C4413C" stroke-width="2"/>
<circle cx="247.16" cy="154.99" r="41.8403" fill="#267987" fill-opacity="0.2"/>
<circle cx="48.7418" cy="74.7599" r="48.7418" fill="#267987" fill-opacity="0.2"/>
<path d="M12.0776 73.8968L31.4881 53.1923C43.5657 62.1643 51.4737 52.6172 53.9179 46.7222L79.7985 54.4863L75.0538 72.6028H65.5642L75.0538 92.0132L40.5463 106.679L34.0761 81.2296L28.4687 89.8565L12.0776 73.8968Z" fill="#267987" stroke="#267987"/>
<path d="M224.268 135.138L247.77 131.869C250.912 144.05 261.072 141.995 265.759 139.444L278.513 158.091L265.909 167.382L259.737 162.397L255.712 180.007L225.562 171.417L234.724 151.465L226.544 154.13L224.268 135.138Z" fill="#267987" stroke="#267987"/>
<path d="M117.358 76.1604C109.014 73.3092 112.152 79.7801 114.781 83.4305C118.785 92.4397 124.636 114.095 115.875 128.173C107.114 142.251 108.407 159.758 110.148 166.751C132.797 173.372 181.86 183.431 196.916 170.698C215.735 154.783 185.868 144.33 179.942 129.054C174.017 113.779 179.942 86.582 162.046 76.1604C144.691 66.0539 130.852 70.5952 125.346 75.1996L124.986 73.4178C121.543 63.728 118.466 71.2088 117.358 76.1604Z" fill="#282525"/>
<path d="M101.74 166.37C102.957 162.894 117.129 154.712 124.063 151.055L153.713 149.314C184.504 151.598 185.244 154.721 192.611 167.414C198.505 177.568 202.02 193.44 203.041 200.107L177.295 203.35L180.357 242.769L181.297 251.198C178.748 252.259 168.524 254.501 148.024 254.981C127.523 255.461 110.64 248.867 104.76 245.51C103.575 240.513 106.47 220.872 108.065 211.676L93.5302 211.015C95.7595 197.581 100.522 169.845 101.74 166.37Z" fill="#C4413C"/>
<path d="M128.588 148.613L128.948 140.685C136.252 143.136 144.738 139.638 148.068 137.582L147.567 148.593L154.173 148.894C140.063 164.141 128.22 156.688 124.063 151.055L128.588 148.613Z" fill="white"/>
<path d="M128.541 145.485C136.662 155.129 144.577 144.624 147.52 138.167C139.398 141.955 131.483 141.467 128.541 140.75V145.485Z" fill="#C3413C" fill-opacity="0.2"/>
<path d="M112.272 110.354C113.137 99.095 120.601 92.1962 124.225 90.1543L160.681 94.0193L157.157 122.988C160.581 115.641 168.989 115.141 170.811 123.609C172.268 130.384 162.008 132.772 156.696 133.119C149.829 138.544 137.597 144.39 125.464 139.424C113.332 134.459 111.191 124.428 112.272 110.354Z" fill="white" stroke="#282525"/>
<path d="M140.381 103.689C126.334 101.991 124.051 93.9718 124.665 90.1747C117.426 94.0824 114.147 101.466 113.413 104.669C101.305 99.175 109.316 88.0054 114.835 83.1073L167.188 86.8126L169.53 103.249L157.107 123.111C143.113 120.268 157.938 105.811 140.381 103.689Z" fill="#282525"/>
<rect x="128.553" y="168.782" width="26.07" height="33.5083" rx="2" transform="rotate(-12.739 128.553 168.782)" fill="#282525"/>
<path d="M159.485 229.799C178.324 245.821 189.179 244.522 192.252 241.869C197.209 236.838 206.219 221.437 202.6 200.087L177.295 203.349L177.555 207.333C173.982 204.206 166.276 197.308 164.031 194.737C160.825 191.065 165.253 177.159 159.361 176.891C154.647 176.676 155.033 185.511 155.815 189.955C151.519 185.498 141.605 175.995 136.314 173.638C131.023 171.282 130.863 176.035 131.444 178.707C124.438 176.978 126.276 181.76 127.826 184.769C123.16 183.499 123.295 187.888 124.191 189.839C115.533 194.736 135.936 209.771 159.485 229.799Z" fill="white"/>
<path d="M131.183 178.73L136.254 183.829" stroke="#C4413C" stroke-linecap="round"/>
<path d="M127.405 184.309L132.891 189.854" stroke="#C4413C" stroke-linecap="round"/>
<path d="M124.502 189.915L129.547 195.44" stroke="#C4413C" stroke-linecap="round"/>
<path d="M196.693 236.15C185.655 226.92 180.596 236.008 179.446 241.706C179.261 242.498 182.818 243.175 184.62 243.415H188.932L191.519 242.56L192.812 241.278L196.693 236.15Z" fill="#C3413C" fill-opacity="0.2"/>
<path d="M107.498 212.273L92.8479 211.607C92.1883 216.614 90.6341 228.001 89.6938 233.485C88.7535 238.969 89.3018 242.103 89.6935 242.984C90.5709 246.478 99.7738 246.033 104.266 245.374C103.122 240.141 105.944 221.126 107.498 212.273Z" fill="white"/>
<path d="M128.89 140.747L128.587 148.613" stroke="#282525" stroke-linecap="round"/>
<path d="M147.848 138.543L147.575 148.581C155.992 148.964 174.886 150.793 183.127 155.048C193.428 160.366 217.541 214.364 192.251 241.869C189.179 244.522 178.324 245.821 159.484 229.799C135.935 209.771 115.845 194.811 124.502 189.914C123.606 187.963 123.16 183.499 127.825 184.769C126.275 181.76 124.438 176.978 131.444 178.707C130.863 176.035 131.023 171.282 136.314 173.638C141.605 175.995 151.519 185.498 155.814 189.955C155.032 185.511 154.647 176.676 159.361 176.891C165.252 177.159 160.824 191.065 164.031 194.737C166.597 197.675 182.363 212.03 189.925 218.839" stroke="#282525" stroke-linecap="round"/>
<path d="M128.587 148.613C119.845 153.217 102.14 163.387 101.259 167.23C100.158 172.035 86.9226 239.843 89.8454 243.507C92.1837 246.438 100.176 246.037 103.88 245.469C109.765 248.68 126.482 255.06 146.262 254.9C166.042 254.741 177.861 252.365 181.297 251.198L180.357 242.769" stroke="#282525" stroke-linecap="round"/>
<path d="M177.535 207.774L174.172 174.96" stroke="#282525" stroke-linecap="round"/>
<path d="M112.03 173.017C112.537 178.042 113.022 190.01 110.908 197.682C108.265 207.271 103.299 238.823 104.74 245.95" stroke="#282525" stroke-linecap="round"/>
<path d="M134.895 107.853L133.233 115.281" stroke="#282525" stroke-linecap="round"/>
<path d="M120.44 105.43L118.779 112.858" stroke="#282525" stroke-linecap="round"/>
<path d="M125.723 111.823L124.407 118.878" stroke="#C4413C" stroke-linecap="round"/>
<path d="M118.337 122.547C119.512 125.837 123.875 130.831 131.931 124.489" stroke="#282525" stroke-linecap="round"/>
<circle cx="142.643" cy="121.887" r="4.84989" transform="rotate(2.60432 142.643 121.887)" fill="#C3413C" fill-opacity="0.2"/>
<path d="M168.648 122.628C165.765 121.32 159.455 120.974 157.277 130.055" stroke="#C4413C" stroke-linecap="round"/>
<path d="M124.042 151.496C128.22 156.688 139.738 163.508 154.153 149.334" stroke="#282525" stroke-linecap="round"/>
<path d="M177.295 203.35L203.041 200.107" stroke="#282525" stroke-linecap="round"/>
<path d="M93.0898 210.995L108.065 211.676" stroke="#282525" stroke-linecap="round"/>
<circle cx="104.385" cy="29.4686" r="12.9403" fill="#C3413C" fill-opacity="0.2"/>
<circle cx="233.788" cy="215.809" r="12.9403" fill="#C3413C" fill-opacity="0.2"/>
<path d="M23.2925 150.245L31.3749 137.929C31.9313 137.081 33.0343 136.784 33.9414 137.237L47.879 144.206" stroke="#C4413C" stroke-width="2" stroke-linecap="round"/>
<path d="M267.068 79.637L259.242 92.1174C258.703 92.9766 257.606 93.2965 256.69 92.8618L242.611 86.1825" stroke="#C4413C" stroke-width="2" stroke-linecap="round"/>
<path d="M104.816 24.2925V35.0761" stroke="#C4413C" stroke-width="2" stroke-linecap="round"/>
<path d="M109.993 29.4688L99.2091 29.4687" stroke="#C4413C" stroke-width="2" stroke-linecap="round"/>
<path d="M239.396 215.809L228.612 215.809" stroke="#C4413C" stroke-width="2" stroke-linecap="round"/>
<path d="M134.579 82.2214C145.921 79.3157 168.875 81.0882 169.949 111.424" stroke="white" stroke-linecap="round"/>
<path d="M160.459 135.579C161.178 140.611 166.153 150.762 180.301 151.107" stroke="white" stroke-linecap="round"/>
<circle cx="68.5835" cy="10.9209" r="4.60746" stroke="#FDB952" stroke-width="2"/>
<circle cx="232.494" cy="105.816" r="4.60746" stroke="#FDB952" stroke-width="2"/>
</svg>
