<svg width="100" height="100" viewBox="0 0 100 100" fill="none" xmlns="http://www.w3.org/2000/svg">
<mask id="mask0_678_19586" style="mask-type:alpha" maskUnits="userSpaceOnUse" x="0" y="0" width="100" height="100">
<circle cx="50" cy="50" r="50" fill="#D1D1D6"/>
</mask>
<g mask="url(#mask0_678_19586)">
<path d="M50.1138 102.483C57.0522 102.483 63.5635 101.15 69.6475 98.4844C75.7314 95.8525 81.0977 92.2124 85.7461 87.564C90.3945 82.9497 94.0347 77.6006 96.6665 71.5166C99.2983 65.4326 100.614 58.9214 100.614 51.9829C100.614 45.0786 99.2812 38.5845 96.6152 32.5005C93.9834 26.4165 90.3433 21.0503 85.6948 16.4019C81.0464 11.7534 75.6802 8.11328 69.5962 5.48145C63.5122 2.84961 57.0181 1.53369 50.1138 1.53369C43.2095 1.53369 36.7153 2.84961 30.6313 5.48145C24.5474 8.11328 19.1812 11.7534 14.5327 16.4019C9.88428 21.0503 6.24414 26.4165 3.6123 32.5005C0.980469 38.5845 -0.335449 45.0786 -0.335449 51.9829C-0.335449 58.9214 0.980469 65.4326 3.6123 71.5166C6.27832 77.6006 9.91846 82.9497 14.5327 87.564C19.1812 92.2124 24.5474 95.8525 30.6313 98.4844C36.7153 101.15 43.2095 102.483 50.1138 102.483ZM50.1138 59.7759C46.9351 59.7417 44.064 58.9043 41.5005 57.2637C38.937 55.623 36.8862 53.4014 35.3481 50.5986C33.8442 47.7959 33.0923 44.6343 33.0923 41.1138C33.0923 37.7983 33.8442 34.7563 35.3481 31.9878C36.8521 29.2192 38.8857 26.9976 41.4492 25.3228C44.0469 23.6479 46.9351 22.8105 50.1138 22.8105C53.2925 22.8105 56.1636 23.6479 58.7271 25.3228C61.2905 26.9976 63.3242 29.2192 64.8281 31.9878C66.332 34.7563 67.084 37.7983 67.084 41.1138C67.084 44.6343 66.332 47.813 64.8281 50.6499C63.3584 53.4526 61.3418 55.6743 58.7783 57.3149C56.2148 58.9556 53.3267 59.7759 50.1138 59.7759ZM50.1138 93.7676C46.5591 93.7676 42.9531 93.2891 39.2959 92.332C35.6729 91.375 32.2207 89.9736 28.9395 88.1279C25.6924 86.2822 22.8555 84.0435 20.4287 81.4116C22.3428 78.6089 24.7866 76.2334 27.7603 74.2852C30.7339 72.3027 34.1006 70.7988 37.8604 69.7734C41.6543 68.7139 45.7388 68.1841 50.1138 68.1841C54.4204 68.1841 58.4536 68.6968 62.2134 69.7222C66.0073 70.7476 69.3911 72.2515 72.3647 74.2339C75.3726 76.1821 77.8506 78.5747 79.7988 81.4116C77.3721 84.0435 74.5181 86.2822 71.2368 88.1279C67.9897 89.9736 64.5376 91.375 60.8804 92.332C57.2573 93.2891 53.6685 93.7676 50.1138 93.7676Z" fill="#C7C7CC"/>
</g>
</svg>
