<svg width="222" height="219" viewBox="0 0 222 219" fill="none" xmlns="http://www.w3.org/2000/svg">
<path d="M218.84 74.092C211.673 99.7587 173.74 153.092 79.3398 161.092C66.3398 157.925 36.0398 162.392 18.8398 205.592" stroke="#C4413C" stroke-linecap="round" stroke-linejoin="round"/>
<path d="M220.84 28.092C222.84 57.4254 204.44 118.892 114.84 130.092C25.2398 141.292 2.17318 193.759 1.83984 218.592" stroke="#C4413C" stroke-linejoin="round"/>
<path d="M161.697 93.108C169.314 52.9585 185.466 53.8795 192.59 59.3587C196.609 63.0825 197.026 63.842 190.022 83.496C183.018 103.15 187.162 83.2442 183.613 133.952C180.749 174.886 166.3 196.43 107.861 201.208C63.252 204.856 37.3645 101.541 31.799 87.7951C26.2334 74.0495 34.1 67.4087 40.984 69.4149C47.4536 71.3003 54.2693 87.3245 60.2516 101.83C65.0374 113.434 72.1489 122.313 74.6897 124.542L48.1498 67.5856C45.4543 61.8009 42.8762 55.2588 45.1246 49.2862C47.1533 43.8972 51.6245 43.1475 55.8044 44.485C60.3112 45.9271 63.3229 49.9606 65.5116 54.1559C67.0196 57.0462 69.0489 61.1574 71.7118 66.8841C78.3017 81.0559 88.6269 98.6133 92.9657 105.621C86.3632 90.7834 71.3608 56.7613 61.0672 32.4352C59.6817 29.1611 58.9997 25.5079 60.1418 22.1412C62.6804 14.6582 67.7617 14.1189 71.9096 15.576C74.6903 16.5528 76.5643 19.0254 77.9571 21.6229L118.424 97.0874C115.718 88.8546 107.459 66.8369 96.0641 44.6287C81.8209 16.8686 95.586 13.0931 102.281 14.5361C110.687 16.3475 138.612 82.5519 148.614 100.781C156.615 115.364 160.67 101.742 161.697 93.108Z" fill="#D4E4E7"/>
<path d="M155.744 112.488C149.476 113.72 136.34 131.592 139.564 157.468" stroke="#267987" stroke-linejoin="round"/>
<path d="M29.8397 78.092C29.5064 78.9254 30.4397 84.992 36.8397 102.592C44.8397 124.592 68.8397 209.092 111.84 200.592" stroke="#267987" stroke-linecap="round" stroke-linejoin="round"/>
<path d="M191.34 79.592C195.173 72.7587 199.64 58.692 186.84 57.092C170.84 55.092 165.34 77.592 160.84 99.092C157.24 116.292 149.673 104.259 146.34 96.092" stroke="#267987" stroke-linejoin="round"/>
<path d="M91.8398 34.092C97.3398 47.092 116.84 90.592 118.34 96.592M59.3398 26.092C66.5065 45.092 83.3398 87.692 93.3398 106.092" stroke="#267987" stroke-linecap="round" stroke-linejoin="round"/>
<path d="M58.8398 89.092L75.3398 124.092" stroke="#267987" stroke-linecap="round" stroke-linejoin="round"/>
<path d="M120.84 44.092L137.34 79.092" stroke="#267987" stroke-linecap="round" stroke-linejoin="round"/>
<path d="M19.4466 113.053L1.2666 108.156" stroke="#C4413C" stroke-linecap="round" stroke-linejoin="round"/>
<path d="M21.1021 124.212L2.84992 126.83" stroke="#C4413C" stroke-linecap="round" stroke-linejoin="round"/>
<path d="M25.3647 134.065L11.4512 145.539" stroke="#C4413C" stroke-linecap="round" stroke-linejoin="round"/>
<path d="M140.274 38.9197L140.413 20.092" stroke="#C4413C" stroke-linecap="round" stroke-linejoin="round"/>
<path d="M150.584 43.4975L157.985 26.609" stroke="#C4413C" stroke-linecap="round" stroke-linejoin="round"/>
<path d="M158.939 50.2381L173.715 39.8973" stroke="#C4413C" stroke-linecap="round" stroke-linejoin="round"/>
<circle cx="52.3398" cy="194.592" r="5.5" stroke="#FDB952" stroke-width="2"/>
<circle cx="183.34" cy="19.592" r="5.5" stroke="#FDB952" stroke-width="2"/>
</svg>
